<?xml version="1.0" encoding="UTF-8" standalone="no"?>
<!-- Created with Inkscape (http://www.inkscape.org/) -->

<svg
   width="200"
   height="200"
   viewBox="0 0 52.916664 52.916668"
   version="1.1"
   id="svg5"
   inkscape:version="1.1 (c68e22c387, 2021-05-23)"
   sodipodi:docname="email.svg"
   xmlns:inkscape="http://www.inkscape.org/namespaces/inkscape"
   xmlns:sodipodi="http://sodipodi.sourceforge.net/DTD/sodipodi-0.dtd"
   xmlns="http://www.w3.org/2000/svg"
   xmlns:svg="http://www.w3.org/2000/svg">
  <sodipodi:namedview
     id="namedview7"
     pagecolor="#505050"
     bordercolor="#eeeeee"
     borderopacity="1"
     inkscape:pageshadow="0"
     inkscape:pageopacity="0"
     inkscape:pagecheckerboard="0"
     inkscape:document-units="mm"
     showgrid="false"
     units="px"
     inkscape:zoom="3.865"
     inkscape:cx="99.870634"
     inkscape:cy="100"
     inkscape:window-width="1920"
     inkscape:window-height="991"
     inkscape:window-x="-9"
     inkscape:window-y="-9"
     inkscape:window-maximized="1"
     inkscape:current-layer="layer1" />
  <defs
     id="defs2" />
  <g
     inkscape:label="Calque 1"
     inkscape:groupmode="layer"
     id="layer1">
    <path
       style="fill:#56b8a1;stroke-width:0.103353;fill-opacity:1"
       d="M 24.511334,52.860505 C 24.31238,52.837345 23.716965,52.768015 23.188189,52.706425 18.512677,52.161869 13.826774,50.168122 9.9385803,47.069013 8.8298173,46.185268 6.8935633,44.247619 5.9747113,43.102289 -0.34941072,35.219407 -1.7356897,24.633197 2.3643383,15.531968 4.5789213,10.616046 8.1951663,6.5767067 12.937015,3.7223063 19.791751,-0.40396697 28.43866,-1.1235969 35.936681,1.8081829 c 7.613258,2.9768383 13.474492,9.2484511 15.846011,16.9554821 0.387034,1.257792 0.665007,2.507816 0.907611,4.081462 0.225239,1.461009 0.257002,5.254828 0.05581,6.66626 -0.876439,6.148586 -3.422956,11.319086 -7.663019,15.559149 -4.138845,4.138845 -9.215197,6.691465 -15.094061,7.58998 -1.028829,0.157244 -4.694979,0.291093 -5.477702,0.199989 z m 4.258012,-9.602466 c 1.26587,-0.167238 2.710947,-0.522204 3.855188,-0.946982 1.678598,-0.62315 4.227121,-2.162218 4.676717,-2.824298 0.611944,-0.901158 -0.066,-2.247521 -1.183726,-2.350812 -0.471493,-0.04357 -0.551404,-0.0095 -1.632639,0.695582 -1.878526,1.225044 -3.112371,1.749828 -5.148171,2.189636 -1.366759,0.295271 -3.892029,0.318539 -5.264383,0.04851 -5.12999,-1.009406 -9.303505,-4.716311 -10.811249,-9.602519 -0.788454,-2.555179 -0.788454,-5.660878 0,-8.216057 1.496032,-4.848254 5.729733,-8.630883 10.719524,-9.57743 4.358988,-0.826886 8.846618,0.451455 12.000571,3.418466 1.514125,1.424382 2.850286,3.525193 3.571966,5.616113 0.671101,1.944382 1.142946,5.607235 0.881919,6.846195 -0.402532,1.910609 -2.484505,2.947448 -4.311949,2.147385 -0.559843,-0.245101 -1.24068,-0.93369 -1.519458,-1.536756 -0.213809,-0.462518 -0.224058,-0.650726 -0.2738,-5.028031 -0.05111,-4.498177 -0.05418,-4.551033 -0.282185,-4.870681 -0.773285,-1.084086 -2.438829,-0.752828 -2.78389,0.553684 l -0.08619,0.32633 -0.566123,-0.357502 c -3.479317,-2.197164 -8.107138,-1.196268 -10.462517,2.262812 -2.058168,3.022602 -1.64989,7.157021 0.964985,9.771896 2.935448,2.935447 7.532644,3.042807 10.629145,0.248225 l 0.598529,-0.54017 0.761577,0.746876 c 0.880798,0.863795 1.709794,1.339225 2.838559,1.627914 1.458155,0.372933 3.043696,0.17932 4.415021,-0.539126 0.923746,-0.483956 2.110838,-1.699912 2.578445,-2.641143 0.581687,-1.170855 0.739245,-2.069277 0.658721,-3.756122 C 43.442524,23.79827 42.878149,21.316145 41.774781,18.969397 39.261207,13.623286 34.514387,10.180421 28.654881,9.4535424 23.4424,8.8069284 18.275428,10.589729 14.542209,14.322948 c -1.927887,1.927886 -3.234845,4.046548 -4.132761,6.699468 -1.1532107,3.407198 -1.1532107,7.266225 0,10.673423 0.897916,2.65292 2.204874,4.771582 4.132761,6.699468 3.748332,3.748332 9.021077,5.55052 14.227134,4.862735 z M 25.659412,30.898217 c -2.347569,-0.461035 -4.037735,-2.877838 -3.649805,-5.218927 0.335972,-2.027522 1.861428,-3.552978 3.88895,-3.888949 2.988554,-0.49522 5.743837,2.260063 5.248618,5.248618 -0.436378,2.633452 -2.90164,4.367142 -5.487763,3.859258 z"
       id="path1064" />
  </g>
</svg>
