<?xml version="1.0" encoding="UTF-8" standalone="no"?>
<!-- Created with Inkscape (http://www.inkscape.org/) -->

<svg
   width="200"
   height="200"
   viewBox="0 0 52.916664 52.916668"
   version="1.1"
   id="svg5"
   inkscape:version="1.1 (c68e22c387, 2021-05-23)"
   sodipodi:docname="facebook.svg"
   xmlns:inkscape="http://www.inkscape.org/namespaces/inkscape"
   xmlns:sodipodi="http://sodipodi.sourceforge.net/DTD/sodipodi-0.dtd"
   xmlns="http://www.w3.org/2000/svg"
   xmlns:svg="http://www.w3.org/2000/svg">
  <sodipodi:namedview
     id="namedview7"
     pagecolor="#505050"
     bordercolor="#eeeeee"
     borderopacity="1"
     inkscape:pageshadow="0"
     inkscape:pageopacity="0"
     inkscape:pagecheckerboard="0"
     inkscape:document-units="mm"
     showgrid="false"
     units="px"
     inkscape:zoom="3.865"
     inkscape:cx="99.870634"
     inkscape:cy="100"
     inkscape:window-width="1920"
     inkscape:window-height="991"
     inkscape:window-x="-9"
     inkscape:window-y="-9"
     inkscape:window-maximized="1"
     inkscape:current-layer="layer1" />
  <defs
     id="defs2" />
  <g
     inkscape:label="Calque 1"
     inkscape:groupmode="layer"
     id="layer1">
    <path
       style="fill:#56b8a1;stroke-width:0.103353;fill-opacity:1"
       d="m 20.851762,40.838667 -0.02627,-12.066447 -4.057652,-0.02704 -4.057652,-0.02704 0.02689,-4.675518 0.02689,-4.675516 4.0566,-0.02704 4.056601,-0.02704 v -4.14549 c 0,-3.211484 0.0361,-4.38858 0.160206,-5.2244237 0.760738,-5.1233087 3.756101,-8.4732839 8.573111,-9.58805531 1.767026,-0.40893213 5.245389,-0.45597889 9.146729,-0.12371446 l 1.395263,0.11883008 0.027,4.21162929 0.027,4.2116294 -2.817524,0.00205 c -1.549639,0.00113 -3.139335,0.048561 -3.532657,0.1054107 -1.489372,0.2152703 -2.487117,0.9300171 -2.963611,2.123021 -0.238961,0.598289 -0.245092,0.696291 -0.279117,4.46162 l -0.03479,3.849895 h 4.599886 c 2.529936,0 4.617936,0.03488 4.639998,0.07751 0.02206,0.04263 -0.228896,2.123902 -0.557684,4.625041 -0.328787,2.501139 -0.599891,4.582408 -0.602453,4.625041 -0.0026,0.04263 -1.818501,0.07751 -4.03542,0.07751 h -4.030762 v 12.092286 12.092285 h -4.857156 -4.857156 z"
       id="path1261" />
  </g>
</svg>
