<?xml version="1.0" encoding="UTF-8" standalone="no"?>
<!-- Created with Inkscape (http://www.inkscape.org/) -->

<svg
   width="16"
   height="16"
   viewBox="0 0 4.2333336 4.2333334"
   version="1.1"
   id="svg28652"
   inkscape:version="1.1 (c68e22c387, 2021-05-23)"
   sodipodi:docname="favicon.svg"
   inkscape:export-filename="C:\Users\marie\OneDrive\Documents\AEC en développement web\Programmation des interfaces web\csf-piweb\devoir 4\circuit\images\favicon16.png"
   inkscape:export-xdpi="96"
   inkscape:export-ydpi="96"
   xmlns:inkscape="http://www.inkscape.org/namespaces/inkscape"
   xmlns:sodipodi="http://sodipodi.sourceforge.net/DTD/sodipodi-0.dtd"
   xmlns="http://www.w3.org/2000/svg"
   xmlns:svg="http://www.w3.org/2000/svg">
  <sodipodi:namedview
     id="namedview28654"
     pagecolor="#505050"
     bordercolor="#eeeeee"
     borderopacity="1"
     inkscape:pageshadow="0"
     inkscape:pageopacity="0"
     inkscape:pagecheckerboard="0"
     inkscape:document-units="mm"
     showgrid="false"
     fit-margin-top="0"
     fit-margin-left="0"
     fit-margin-right="0"
     fit-margin-bottom="0"
     units="px"
     inkscape:zoom="50.5625"
     inkscape:cx="7.9901112"
     inkscape:cy="8"
     inkscape:window-width="1920"
     inkscape:window-height="991"
     inkscape:window-x="-9"
     inkscape:window-y="-9"
     inkscape:window-maximized="1"
     inkscape:current-layer="layer1" />
  <defs
     id="defs28649" />
  <g
     inkscape:label="Calque 1"
     inkscape:groupmode="layer"
     id="layer1"
     transform="translate(276.85713,-93.379032)">
    <path
       id="path28397"
       style="color:#000000;fill:#56b8a1;fill-opacity:1;stroke:none;stroke-width:0.00934523;stroke-linecap:round;stroke-miterlimit:4;stroke-dasharray:none;stroke-opacity:1"
       d="m -275.0135,93.486182 c -0.003,0.0012 -0.006,0.0037 -0.007,0.0084 -0.58843,1.25358 -1.12229,2.258638 -1.44149,3.05391 -0.0776,0.168694 -0.13928,0.336642 -0.18143,0.506413 -1e-5,3.4e-5 -2e-5,7e-5 -7e-5,1.61e-4 v 0 c -7e-5,2.43e-4 -8e-5,4.85e-4 -1.6e-4,6.47e-4 2e-5,4.03e-4 7e-5,7.27e-4 1.6e-4,0.0011 -4e-4,0.0024 -1.6e-4,0.0042 7.3e-4,0.0085 0,7e-5 0,1.61e-4 -2e-5,2.42e-4 -0.0318,0.138488 -0.12645,0.222079 -0.2034,0.359407 -0.052,0.01896 0.10326,0.144331 0.12151,0.03788 0.0531,-0.08766 0.15162,-0.207326 0.19594,-0.235414 10e-4,7.1e-5 0.003,-8e-5 0.004,-4.84e-4 0.007,-0.004 0.0127,-0.0084 0.0197,-0.01259 0.18277,-0.107797 0.35354,-0.20719 0.51503,-0.300283 1.58964,-0.461077 2.08364,-0.722356 2.93538,-1.072277 0.007,-0.0027 0.01,-0.01266 0.007,-0.01691 -7.3e-4,-0.0017 -0.002,-0.0032 -0.003,-0.0043 0.0811,-0.0122 0.16346,-0.02438 0.2422,-0.0366 0.007,-0.0011 0.0119,-0.0084 0.0107,-0.01689 -10e-4,-0.0085 -0.008,-0.01277 -0.0146,-0.01282 -0.17061,0.02858 -0.34781,0.05372 -0.5293,0.08308 0.0987,-0.04219 0.20198,-0.08774 0.31187,-0.137068 0.007,-0.003 0.009,-0.01266 0.007,-0.01692 -0.003,-0.0085 -0.0106,-0.0086 -0.0171,-0.0086 -0.14857,0.06731 -0.28531,0.126639 -0.41414,0.180508 -0.17895,0.02852 -0.36226,0.06296 -0.54874,0.101609 0.42451,-0.163054 0.81976,-0.305094 1.13269,-0.399326 0.007,-0.0021 0.0111,-0.0084 0.009,-0.0169 -0.002,-0.0085 -0.009,-0.01278 -0.0163,-0.0086 -0.2635,0.07929 -0.58434,0.192125 -0.93171,0.322603 0.22536,-0.112609 0.44705,-0.208281 0.71278,-0.289674 0.006,-0.0018 0.009,-0.0084 0.009,-0.01266 0.1336,-0.04154 0.26944,-0.08052 0.41724,-0.126209 0.007,-0.0021 0.0107,-0.0084 0.009,-0.01691 -0.002,-0.0085 -0.009,-0.01278 -0.0163,-0.0086 -0.59198,0.181475 -0.99948,0.279335 -1.80635,0.671019 -0.0406,0.01246 -0.0812,0.02068 -0.12198,0.03313 0.68387,-0.304278 1.3383,-0.57088 1.87261,-0.821594 0.007,-0.0031 0.009,-0.01266 0.007,-0.01692 -0.003,-0.0085 -0.0106,-0.0085 -0.0171,-0.0086 -0.5035,0.236327 -1.11474,0.487094 -1.75732,0.770437 0.11287,-0.06584 0.22138,-0.128749 0.325,-0.187445 0.55906,-0.240631 1.09067,-0.467277 1.545,-0.704855 4e-4,-2.42e-4 8.1e-4,-5.65e-4 10e-4,-8.4e-4 4e-4,-2.42e-4 7.3e-4,-4.84e-4 0.001,-8.07e-4 4.8e-4,-4.85e-4 9.6e-4,-9.21e-4 10e-4,-0.0014 3.2e-4,-4.04e-4 6.5e-4,-7.27e-4 9.3e-4,-0.0012 4e-4,-5.66e-4 7.3e-4,-0.0011 10e-4,-0.0018 2.4e-4,-4.04e-4 4e-4,-8.4e-4 5.6e-4,-0.0013 2.5e-4,-6.46e-4 4.1e-4,-0.0013 4.9e-4,-0.0019 8e-5,-4.85e-4 2.4e-4,-10e-4 3.2e-4,-0.0016 4e-5,-5.65e-4 4e-5,-0.0012 10e-6,-0.0018 0,-5.65e-4 -3e-5,-0.0012 -1.6e-4,-0.0018 -7e-5,-4.85e-4 -2.4e-4,-10e-4 -3.2e-4,-0.0015 -8e-5,-4.84e-4 -2.5e-4,-9.37e-4 -3.3e-4,-0.0014 -3e-5,-7e-5 -8e-5,-1.61e-4 -1.6e-4,-2.42e-4 -7e-5,-2.42e-4 -1.6e-4,-4.85e-4 -2.4e-4,-6.46e-4 -8.8e-4,-0.0011 -0.002,-0.002 -0.003,-0.0028 -10e-4,-0.0015 -0.003,-0.0028 -0.004,-0.0038 -0.001,-2.42e-4 -0.003,-3.23e-4 -0.005,-3e-5 -0.002,-4.03e-4 -0.003,-4.03e-4 -0.005,5e-6 -0.17639,0.07603 -0.34563,0.145754 -0.50925,0.210845 0.0595,-0.0293 0.11778,-0.06072 0.1749,-0.09301 0.016,-0.0084 0.032,-0.01251 0.048,-0.02089 0.004,-0.0019 0.007,-0.0042 0.008,-0.01267 0.0868,-0.05075 0.17052,-0.104483 0.25026,-0.162062 0.006,-0.0042 0.007,-0.01267 0.003,-0.01694 -0.004,-0.0043 -0.0122,-0.0086 -0.018,-0.0035 -0.0956,0.06893 -0.19708,0.132299 -0.30295,0.191828 -0.19929,0.08903 -0.38435,0.177308 -0.56768,0.270259 -0.0348,0.0125 -0.0704,0.02923 -0.10584,0.04257 0.32203,-0.177287 0.65943,-0.369739 1.00914,-0.577718 0.006,-0.0037 0.008,-0.01267 0.005,-0.01693 -0.004,-0.0085 -0.0114,-0.0086 -0.018,-0.0044 -0.41291,0.245819 -0.80862,0.469189 -1.18206,0.672349 -0.0566,0.02084 -0.11361,0.04167 -0.17082,0.06208 0.4007,-0.210276 0.82753,-0.455708 1.26965,-0.759049 0.006,-0.0042 0.008,-0.01267 0.004,-0.01694 -0.004,-0.0043 -0.0122,-0.0086 -0.018,-0.0039 -0.50577,0.346989 -0.99163,0.618075 -1.44132,0.84733 -0.20134,0.06994 -0.40396,0.138167 -0.60293,0.208967 -0.1,0.03752 -0.19897,0.07165 -0.29649,0.109179 0.57749,-0.345251 1.18905,-0.664585 2.08748,-1.281015 0.006,-0.0042 0.008,-0.01267 0.004,-0.01694 -0.004,-0.0043 -0.0122,-0.0086 -0.018,-0.0039 -0.17303,0.118885 -0.33498,0.225968 -0.48856,0.325049 -0.004,-0.0016 -0.008,-0.0015 -0.011,4.04e-4 -0.85462,0.501797 -1.4192,0.777927 -1.89198,1.063897 0.6164,-0.437867 1.20656,-0.711542 1.84313,-1.145081 0.19499,-0.09499 0.39528,-0.187413 0.60052,-0.27683 0.007,-0.0029 0.01,-0.01266 0.007,-0.01692 -0.003,-0.0085 -0.0106,-0.0085 -0.0171,-0.0086 -0.15335,0.06685 -0.30393,0.134998 -0.45167,0.205282 0.15301,-0.108838 0.30882,-0.227835 0.46867,-0.362071 0.006,-0.0042 0.007,-0.01268 0.002,-0.02119 -0.004,-0.0043 -0.0126,-0.0086 -0.0184,-0.0021 -0.20732,0.174213 -0.40814,0.322602 -0.60473,0.456685 -0.27613,0.134756 -0.54148,0.274244 -0.79418,0.417633 0.39177,-0.251468 0.81156,-0.512635 1.25396,-0.789175 0.006,-0.0039 0.008,-0.01267 0.005,-0.01693 -0.004,-0.0085 -0.0118,-0.0086 -0.018,-0.0044 -0.52301,0.326946 -1.01541,0.632719 -1.46625,0.92604 0.0589,-0.0433 0.11783,-0.08617 0.17732,-0.130307 0.18288,-0.113733 0.37789,-0.24138 0.58838,-0.394795 0.26457,-0.162393 0.52434,-0.336267 0.76723,-0.531071 0.006,-0.0042 0.007,-0.01268 0.002,-0.02119 -0.004,-0.0043 -0.0126,-0.0086 -0.0184,-0.0025 -0.15873,0.127034 -0.32485,0.245964 -0.49492,0.358084 0.15568,-0.122815 0.3195,-0.260417 0.49283,-0.417889 0.005,-0.0042 0.006,-0.01268 10e-4,-0.02119 h 3e-5 c -0.005,-0.0043 -0.013,-0.0043 -0.0184,-0.0013 -0.26984,0.245049 -0.51652,0.442457 -0.74494,0.609282 -0.0406,0.02518 -0.0814,0.04951 -0.1222,0.07384 0.28931,-0.226688 0.57365,-0.464647 0.83436,-0.714759 0.005,-0.0042 0.005,-0.01269 7.3e-4,-0.0212 -0.005,-0.0043 -0.0131,-0.0043 -0.0184,-8.08e-4 -0.30911,0.296529 -0.65186,0.576556 -0.99712,0.840622 -0.0607,0.03353 -0.12127,0.06961 -0.18185,0.103986 0.37006,-0.275779 0.75435,-0.581615 1.12064,-0.932985 0.005,-0.0042 0.006,-0.01268 8.1e-4,-0.0212 -0.005,-0.0043 -0.0131,-0.0043 -0.0184,-8.4e-4 -0.37444,0.359289 -0.76802,0.670451 -1.14617,0.951139 0.38647,-0.297723 0.788,-0.627535 1.16492,-1.004108 0.005,-0.0042 0.005,-0.01269 4e-4,-0.0212 -0.005,-0.0043 -0.0131,-0.0043 -0.0184,-4.04e-4 -0.47166,0.471245 -0.98239,0.868917 -1.4542,1.222572 -0.0435,0.02516 -0.0867,0.04863 -0.12968,0.07294 0.48873,-0.389503 1.03137,-0.827762 1.54248,-1.338443 0.005,-0.0042 0.005,-0.01269 4e-4,-0.0212 -0.005,-0.0043 -0.0131,-0.0043 -0.0184,-4.04e-4 -0.34581,0.345481 -0.7065,0.657747 -1.0553,0.944519 0.19513,-0.17302 0.39786,-0.358289 0.60675,-0.558486 0.005,-0.0042 0.006,-0.01268 8.1e-4,-0.0212 -0.005,-0.0043 -0.0131,-0.0043 -0.0184,-8.08e-4 -0.42441,0.407306 -0.82275,0.750581 -1.18446,1.057794 -0.008,0.0084 -0.016,0.01262 -0.0243,0.02105 -0.055,0.02933 -0.10966,0.0629 -0.16346,0.09435 -0.0172,0.0084 -0.0345,0.02098 -0.0518,0.02935 0.55069,-0.497362 1.16661,-1.082207 1.63494,-1.845813 0.004,-0.0042 0.002,-0.01271 -0.004,-0.01699 -0.006,-0.004 -0.0139,-0.0022 -0.018,0.0041 -0.45567,0.742951 -1.05248,1.315707 -1.59326,1.805459 0.37783,-0.377501 0.78824,-0.80873 1.20753,-1.360755 0.005,-0.0042 0.003,-0.0127 -0.002,-0.01698 -0.002,-0.0017 -0.005,-0.0026 -0.007,-0.0026 0.0417,-0.05104 0.0826,-0.102932 0.12276,-0.15483 0.005,-0.0042 0.004,-0.0127 -0.002,-0.01698 -0.006,-0.0043 -0.0139,-0.0038 -0.0184,0.0021 -0.30015,0.390726 -0.64706,0.750193 -0.99161,1.092968 0.27107,-0.294656 0.53731,-0.613088 0.77105,-0.977613 0.004,-0.0042 0.002,-0.01271 -0.004,-0.01699 -0.006,-0.0042 -0.0139,-0.0025 -0.018,0.0037 -0.47362,0.738594 -1.0829,1.287566 -1.59629,1.840254 -0.003,0.0018 -0.005,0.0037 -0.008,0.0042 0.47439,-0.59734 1.02902,-1.268282 1.41585,-1.862202 0.0128,-0.01688 0.026,-0.03376 0.0384,-0.05148 0.002,-0.0032 0.003,-0.0085 0.002,-0.01271 0.0568,-0.08911 0.10966,-0.176542 0.15743,-0.261467 0.004,-0.0085 0.002,-0.01271 -0.005,-0.01699 -0.006,-0.0038 -0.0143,-0.0016 -0.0176,0.0041 -0.0583,0.103514 -0.12447,0.210794 -0.19617,0.321006 -0.3975,0.530074 -0.9237,1.140858 -1.39072,1.727092 0.0642,-0.09542 0.12823,-0.190415 0.19424,-0.288367 0.40026,-0.507667 0.81866,-1.018098 1.15756,-1.448221 0.005,-0.0042 0.004,-0.0127 -0.002,-0.02121 -0.006,-0.0043 -0.0139,-0.0039 -0.0184,0.0019 -0.28038,0.355658 -0.61549,0.766893 -0.9498,1.186105 0.21465,-0.320888 0.42869,-0.646867 0.62044,-0.959209 0.0953,-0.124478 0.18406,-0.242636 0.26171,-0.351114 0.004,-0.0042 0.003,-0.0127 -0.003,-0.01698 -0.006,-0.0043 -0.0139,-0.0033 -0.0184,0.0027 -0.0351,0.04854 -0.0719,0.09919 -0.11068,0.151516 0.0945,-0.160102 0.18149,-0.31474 0.25772,-0.461985 0.003,-0.0085 10e-4,-0.01696 -0.005,-0.017 -0.007,-0.0036 -0.0143,-0.0011 -0.0176,0.0041 -0.10944,0.211316 -0.24134,0.438855 -0.38606,0.674579 -0.16176,0.210978 -0.34365,0.441712 -0.53148,0.6825 0.2595,-0.36385 0.49921,-0.708703 0.66774,-0.999951 0.004,-0.0085 0.002,-0.01271 -0.004,-0.01699 -0.006,-0.0039 -0.0143,-0.0018 -0.018,0.0041 -0.26968,0.466065 -0.72376,1.071592 -1.15073,1.675768 -0.2439,0.329602 -0.4722,0.659773 -0.64849,0.965388 0.08,-0.165285 0.16874,-0.316096 0.26728,-0.468072 0.0857,-0.124965 0.17948,-0.249028 0.28482,-0.389977 0.29011,-0.387822 0.66607,-0.901582 1.19086,-1.899449 0.003,-0.0085 10e-4,-0.01695 -0.005,-0.01699 -0.003,-0.0017 -0.007,-0.0019 -0.0106,-4.52e-4 0.0219,-0.03378 0.0438,-0.07011 0.0657,-0.105588 0.004,-0.0042 0.002,-0.01271 -0.004,-0.01699 -0.005,-0.0033 -0.0122,-0.0021 -0.0164,0.003 0.0277,-0.05495 0.0562,-0.111161 0.0848,-0.168646 0.003,-0.0085 8.5e-4,-0.01696 -0.006,-0.017 -0.007,-0.0035 -0.0143,-8.97e-4 -0.0176,0.0041 -0.0781,0.15724 -0.15379,0.304319 -0.22701,0.442382 -0.38061,0.591586 -0.76,1.097478 -1.07868,1.563438 0.29642,-0.547394 0.62744,-1.188279 0.91668,-1.979038 10e-4,-0.0034 10e-4,-0.0085 -2.4e-4,-0.0085 -10e-4,-0.0033 -0.004,-0.0043 -0.007,-0.0085 -0.007,-0.0027 -0.0143,8.41e-4 -0.0168,0.0084 -0.33578,0.918013 -0.72633,1.630048 -1.05565,2.232864 -0.0244,0.03801 -0.0485,0.07474 -0.0719,0.111908 0.32957,-0.652174 0.74901,-1.430853 1.14558,-2.401096 0.001,-0.0033 0.001,-0.0085 8e-5,-0.0085 -0.001,-0.0034 -0.004,-0.0043 -0.007,-0.0085 -0.007,-0.003 -0.0143,2.82e-4 -0.0172,0.0084 -0.45866,1.122116 -0.94889,1.9882 -1.29474,2.700355 -0.002,0.0042 -0.005,0.0084 -0.007,0.01268 0.32324,-0.737322 0.79275,-1.638693 1.30378,-2.727395 0.003,-0.0085 5.7e-4,-0.01696 -0.006,-0.017 -0.003,-0.0016 -0.007,-0.0018 -0.01,-7.03e-4 z m 0.30062,0.426082 c -0.37135,0.702704 -0.66681,1.160502 -0.91032,1.505118 0.23789,-0.349147 0.51459,-0.781879 0.83827,-1.391939 0.024,-0.03801 0.048,-0.07517 0.072,-0.113179 z m -0.24659,0.379199 h 1e-5 c -0.33269,0.598554 -0.61251,1.009172 -0.84937,1.348318 -0.13306,0.190385 -0.25256,0.358806 -0.36052,0.525606 -0.15074,0.219954 -0.27685,0.442738 -0.39392,0.76061 -1.7e-4,8.4e-4 -3.3e-4,0.0017 -3.3e-4,0.0026 -2.4e-4,9.29e-4 -4.8e-4,0.0019 -4.8e-4,0.0028 3e-5,2.43e-4 8e-5,4.85e-4 1.6e-4,7.27e-4 1.6e-4,9.78e-4 4.8e-4,0.002 8.2e-4,0.0029 1.7e-4,5.65e-4 3.3e-4,0.0011 4.9e-4,0.0017 1.6e-4,4.84e-4 3.2e-4,8.88e-4 4.8e-4,0.0014 1.6e-4,2.42e-4 4.1e-4,4.03e-4 5.7e-4,6.46e-4 6.4e-4,8.07e-4 10e-4,0.0015 0.002,0.0022 -0.005,0.01269 -0.0108,0.02113 -0.0162,0.03382 -0.008,0.0084 -0.0161,0.0211 -0.0239,0.02953 0.12439,-0.349035 0.3317,-0.729846 0.57079,-1.16757 0.30209,-0.463819 0.67977,-0.962938 1.06907,-1.545519 z m 0.89211,0.08338 c -0.46007,0.589841 -0.90635,1.037502 -1.30978,1.435276 -0.0736,0.04575 -0.14533,0.0915 -0.2151,0.138543 0.47367,-0.491372 1.03921,-1.000216 1.52488,-1.573693 z m -0.52349,0.172589 c -0.36962,0.511638 -0.81761,1.054616 -1.20439,1.544092 -0.0399,0.02943 -0.0785,0.05928 -0.11633,0.08957 0.41234,-0.535745 0.90349,-1.108803 1.32073,-1.633449 z m -0.27932,0.01515 c -0.21179,0.334476 -0.44252,0.679429 -0.66715,1.012719 -0.22695,0.287732 -0.44826,0.575033 -0.64579,0.846332 -0.0657,0.06657 -0.12656,0.1353 -0.18186,0.20703 0.17781,-0.295259 0.39423,-0.611597 0.61857,-0.928986 0.29031,-0.392486 0.6024,-0.784957 0.87623,-1.136926 z m 1.09687,0.507101 c -0.65943,0.425757 -1.27701,0.710153 -1.93655,1.230133 -0.009,0.0042 -0.0193,0.0084 -0.0287,0.01678 0.17746,-0.140483 0.37652,-0.288034 0.58814,-0.442332 0.0559,-0.0378 0.11294,-0.07729 0.17055,-0.115934 0.36862,-0.236351 0.77327,-0.467678 1.20673,-0.686903 z m -0.55741,0.169826 c -0.0394,0.02943 -0.079,0.05885 -0.11845,0.08828 -0.0895,0.05582 -0.17627,0.108262 -0.26054,0.158603 -0.008,0.0042 -0.0152,0.0084 -0.0226,0.01257 0.0704,-0.05085 0.14148,-0.102127 0.21362,-0.15509 0.0626,-0.03352 0.12512,-0.07001 0.18811,-0.105642 z m 1.31712,0.05475 c -0.29067,0.138054 -0.6045,0.275109 -0.93056,0.415478 0.12208,-0.06706 0.24094,-0.130319 0.35991,-0.191459 0.1826,-0.06964 0.37194,-0.143464 0.57066,-0.224443 z m -1.01411,0.07739 c -0.46224,0.278999 -0.84653,0.488365 -1.22492,0.720201 -0.0843,0.03338 -0.16719,0.06973 -0.24814,0.106525 0.39226,-0.245104 0.84224,-0.472024 1.47308,-0.826896 z m -0.67291,0.14109 c -0.0886,0.06473 -0.17652,0.128616 -0.26271,0.190816 -0.0449,0.03363 -0.0884,0.06431 -0.13236,0.09625 -0.1964,0.128912 -0.38209,0.25874 -0.55595,0.388645 0.028,-0.02526 0.0558,-0.04925 0.0844,-0.07451 0.17046,-0.133744 0.36038,-0.272026 0.56191,-0.417442 0.0982,-0.06043 0.19954,-0.120834 0.30466,-0.184184 z m -0.15974,0.02441 c -0.0869,0.06474 -0.17215,0.128219 -0.2551,0.190441 0.0535,-0.04545 0.10644,-0.09006 0.16178,-0.137192 0.0308,-0.01676 0.062,-0.03352 0.0933,-0.05283 z m 1.0637,0.06202 c -0.12633,0.06745 -0.25481,0.138287 -0.38921,0.214593 -0.0491,0.02088 -0.0971,0.04178 -0.14658,0.06308 0.15607,-0.0821 0.31661,-0.167569 0.48202,-0.257668 0.0181,-0.0084 0.0357,-0.01249 0.0538,-0.02085 z m -1.31716,0.08306 c -0.14587,0.116516 -0.28463,0.229262 -0.414,0.338254 -0.0497,0.03784 -0.099,0.07908 -0.14794,0.121591 0.028,-0.0295 0.056,-0.05561 0.0845,-0.08384 0.0953,-0.08674 0.19544,-0.17641 0.29789,-0.268614 0.0556,-0.03356 0.11169,-0.06755 0.16894,-0.101101 0.004,-0.002 0.007,-0.0041 0.0107,-0.0042 z m 1.58534,0.01116 c -0.17171,0.07352 -0.33423,0.155158 -0.5066,0.246485 -0.0457,0.01667 -0.0915,0.03333 -0.13777,0.05339 -0.059,0.01234 -0.11827,0.02892 -0.17776,0.0421 0.32585,-0.15394 0.58489,-0.258274 0.82213,-0.341972 z m -0.50954,-0.0032 c -0.22939,0.123185 -0.44854,0.237531 -0.65812,0.345154 -0.44587,0.196415 -0.90089,0.40634 -1.34351,0.642679 0.45058,-0.287555 1.06425,-0.543437 1.77289,-0.901027 0.0752,-0.0292 0.15125,-0.05754 0.22876,-0.08672 z m 0.9531,0.132964 c -0.79514,0.327729 -1.28392,0.578272 -2.67101,0.991894 0.35034,-0.14742 0.63871,-0.282096 0.8869,-0.406007 0.49065,-0.173226 0.88615,-0.302967 1.42211,-0.528101 0.12345,-0.0204 0.24293,-0.04083 0.36199,-0.05787 z m -1.46996,0.06596 c -0.53838,0.262391 -1.01255,0.473337 -1.39016,0.698903 0.0115,-0.0084 0.0234,-0.01681 0.0349,-0.02522 0.44009,-0.282958 0.87833,-0.483028 1.35505,-0.673009 z m -0.0717,-3.23e-4 c -0.33615,0.135639 -0.65435,0.278178 -0.96838,0.453185 0.11856,-0.07938 0.23565,-0.153677 0.35318,-0.225427 0.14413,-0.05843 0.29271,-0.11387 0.44364,-0.167594 0.0569,-0.02083 0.11414,-0.04167 0.17155,-0.05995 z m 1.06003,0.01111 c -0.41124,0.168653 -0.74433,0.283532 -1.11751,0.413842 0.22104,-0.11391 0.40925,-0.217007 0.58481,-0.310856 0.18062,-0.04124 0.35849,-0.07316 0.5327,-0.10341 z m -2.18135,-0.01354 c -0.063,0.09331 -0.12566,0.186616 -0.18553,0.276126 -0.0231,0.02953 -0.046,0.05992 -0.0685,0.08988 -0.0238,0.02105 -0.0473,0.0421 -0.0702,0.06146 0.10349,-0.13969 0.21236,-0.282737 0.32435,-0.427672 z m 0.28116,0.0103 v 0 c -0.045,0.04423 -0.0913,0.08973 -0.13497,0.133125 -0.16563,0.150737 -0.31899,0.295192 -0.4523,0.435919 1.6e-4,-2.42e-4 4e-4,-4.84e-4 4.8e-4,-7.27e-4 0.026,-0.03376 0.0523,-0.06497 0.0792,-0.09702 0.003,-0.0035 0.006,-0.0084 0.009,-0.0084 0.006,-0.0084 0.0119,-0.01264 0.0177,-0.02109 0.0832,-0.09784 0.1719,-0.196069 0.26494,-0.294694 0.0697,-0.04916 0.14186,-0.09746 0.21609,-0.144897 z m 1.07111,0.03662 c -0.10268,0.05955 -0.21145,0.123301 -0.32436,0.189569 -0.0267,0.01255 -0.0534,0.0251 -0.0801,0.03765 -0.0752,0.02496 -0.15062,0.04779 -0.22622,0.07401 0.10948,-0.05527 0.22299,-0.113049 0.33925,-0.172511 0.0977,-0.04304 0.19489,-0.08567 0.29141,-0.127447 z m 0.16205,0.11215 c -0.18952,0.102241 -0.39738,0.214539 -0.64594,0.338024 -0.15134,0.0533 -0.3115,0.111203 -0.48824,0.177058 0.15777,-0.08676 0.30347,-0.16511 0.43945,-0.236741 0.23249,-0.09518 0.46617,-0.189075 0.69473,-0.278341 z m -0.1195,0.01619 c -0.1015,0.04175 -0.20385,0.08094 -0.30642,0.122262 0.0634,-0.03351 0.12503,-0.06237 0.18393,-0.09125 0.041,-0.01246 0.0817,-0.02067 0.12251,-0.03313 z m -0.25836,0.06829 c -0.10205,0.05065 -0.21085,0.106767 -0.32638,0.167082 -0.0275,0.01254 -0.0553,0.02084 -0.0828,0.03339 0.0915,-0.05453 0.18668,-0.111164 0.2709,-0.160656 0.0462,-0.01242 0.0923,-0.02909 0.13826,-0.04151 z m -1.25059,0.04279 c -0.0707,0.09029 -0.13902,0.178048 -0.20394,0.26371 -0.0392,0.04894 -0.0772,0.0983 -0.11331,0.147259 0.0677,-0.10515 0.14037,-0.215356 0.21614,-0.329358 0.0329,-0.02947 0.0666,-0.0547 0.10111,-0.08161 z m 0.46385,0.0072 c -0.17223,0.108712 -0.34524,0.225054 -0.52572,0.357036 -0.041,0.02518 -0.0821,0.05332 -0.12319,0.08147 0.11191,-0.101895 0.22234,-0.195319 0.33158,-0.281966 0.0103,-0.0084 0.0205,-0.01259 0.0308,-0.021 0.0924,-0.04732 0.18807,-0.0925 0.28639,-0.135536 z m 0.46462,0.06789 c -0.083,0.0495 -0.16922,0.100251 -0.25932,0.153946 -0.16218,0.06722 -0.32175,0.133611 -0.47669,0.19876 0.24461,-0.123511 0.49125,-0.240647 0.73599,-0.352707 z m -0.088,0.01215 c -0.32193,0.148876 -0.64649,0.30664 -0.96478,0.475767 -0.0883,0.03759 -0.17093,0.07268 -0.25371,0.107762 0.0271,-0.01679 0.0545,-0.03357 0.0817,-0.05078 0.25842,-0.12766 0.5662,-0.277053 0.91406,-0.450696 0.0744,-0.0292 0.14858,-0.05628 0.22271,-0.0821 z m -0.21883,0.04989 c -0.005,0.0023 -0.009,0.0042 -0.0136,0.0084 -0.002,7.27e-4 -0.004,0.0015 -0.006,0.0022 0.007,-0.003 0.0127,-0.0042 0.0193,-0.0084 z m -0.8433,0.05178 c -0.0973,0.130826 -0.18829,0.258723 -0.27111,0.382857 -0.028,0.02526 -0.0552,0.05434 -0.0815,0.08259 0.0835,-0.124129 0.17476,-0.253722 0.27203,-0.387091 0.0259,-0.02527 0.053,-0.05266 0.0806,-0.07835 z m 0.90422,0.0648 c -0.002,0.0011 -0.004,0.0022 -0.006,0.0033 10e-4,-8.8e-4 0.003,-0.0016 0.004,-0.0025 6.5e-4,-3.24e-4 0.001,-5.66e-4 0.002,-8.4e-4 z m 0.0805,0.06328 c -0.20548,0.0979 -0.43787,0.202828 -0.70533,0.31474 0.0943,-0.05367 0.1859,-0.105656 0.27318,-0.154281 0.15539,-0.05921 0.29798,-0.112139 0.43214,-0.160459 z m -0.25697,0.01106 c -0.0807,0.04824 -0.17189,0.102354 -0.25887,0.153949 -0.18662,0.07173 -0.39113,0.153093 -0.62039,0.247866 0.0858,-0.04821 0.17238,-0.09514 0.25936,-0.141223 0.19688,-0.08354 0.40503,-0.170814 0.6199,-0.260592 z m -0.83361,0.05227 c -0.0227,0.03378 -0.0451,0.0701 -0.0668,0.103884 -0.005,0.0042 -0.0103,0.0084 -0.0152,0.01262 0.0268,-0.03799 0.0539,-0.07768 0.0819,-0.11693 z m 0.12501,0.04745 v 0 c -0.0464,0.0421 -0.093,0.08548 -0.13994,0.130549 -0.007,0.0042 -0.014,0.0084 -0.021,0.01683 0.005,-0.0042 0.009,-0.0084 0.0144,-0.01687 0.0123,-0.01264 0.0251,-0.02528 0.0383,-0.03791 0.0362,-0.03369 0.0724,-0.06229 0.10853,-0.09174 z m -0.26473,0.02373 c -0.051,0.07261 -0.1,0.143529 -0.14629,0.212773 0.0432,-0.0735 0.0921,-0.144428 0.14629,-0.212773 z m 0.57325,0.112694 c -0.0836,0.0495 -0.16598,0.09858 -0.25575,0.151426 -0.10868,0.03322 -0.2223,0.06386 -0.34167,0.09744 l 0.004,-0.0085 c 0.21786,-0.09103 0.4138,-0.169908 0.59366,-0.240831 z m -0.55572,0.03457 c -0.005,0.0084 -0.01,0.01266 -0.0148,0.02111 -0.0169,0.01685 -0.0337,0.02947 -0.0508,0.04759 -0.002,0.0015 -0.003,0.0034 -0.003,0.0042 l -0.0152,0.0084 c 0.002,-0.0032 0.004,-0.0085 0.006,-0.0084 0.0255,-0.02528 0.0515,-0.04843 0.0779,-0.07286 z m 0.0783,0.09762 c -0.0299,0.01677 -0.06,0.03354 -0.0898,0.05073 l 0.007,-0.01692 c 0.0263,-0.01255 0.0558,-0.02508 0.0828,-0.03339 z m 0.0682,0.11027 c -0.0811,0.04782 -0.16705,0.09857 -0.25332,0.148897 l 0.0286,-0.06215 c 0.0774,-0.02918 0.15224,-0.05838 0.22487,-0.08675 z m -0.0962,0.0079 c -0.0365,0.01249 -0.0748,0.0292 -0.11264,0.04295 l 0.006,-0.01268 c 0.0364,-0.0082 0.0714,-0.02074 0.10666,-0.02899 z"
       sodipodi:nodetypes="cccsccccccccccccccccccccccccccccccccccccccccccccccccccccccccccccccccccccccccccccccsccccccccscccscccccccccccccccccccccccccccccccccccccccccccscsccccccscccccccccccccccccccccccscccccccccccccscccccccccccccccccsccccccscccccccccccccccccccccccccccccccccccccccccccccccccccccccccscccccccccccccccccccccccccccccccccccccccccccsccccccccccccccccccccccccccccccccccccccccccccccccccccccccccccccccccccccccccccccccccccccccccccccccccccccccccccccccccccccccccccccccccccccccccccccccccccccccccccccc" />
  </g>
</svg>
