<?xml version="1.0" encoding="UTF-8" standalone="no"?>
<!-- Created with Inkscape (http://www.inkscape.org/) -->

<svg
   width="200"
   height="200"
   viewBox="0 0 52.916664 52.916668"
   version="1.1"
   id="svg5"
   inkscape:version="1.1 (c68e22c387, 2021-05-23)"
   sodipodi:docname="instagram.svg"
   xmlns:inkscape="http://www.inkscape.org/namespaces/inkscape"
   xmlns:sodipodi="http://sodipodi.sourceforge.net/DTD/sodipodi-0.dtd"
   xmlns="http://www.w3.org/2000/svg"
   xmlns:svg="http://www.w3.org/2000/svg">
  <sodipodi:namedview
     id="namedview7"
     pagecolor="#505050"
     bordercolor="#eeeeee"
     borderopacity="1"
     inkscape:pageshadow="0"
     inkscape:pageopacity="0"
     inkscape:pagecheckerboard="0"
     inkscape:document-units="mm"
     showgrid="false"
     units="px"
     inkscape:zoom="3.865"
     inkscape:cx="99.870634"
     inkscape:cy="100"
     inkscape:window-width="1920"
     inkscape:window-height="991"
     inkscape:window-x="-9"
     inkscape:window-y="-9"
     inkscape:window-maximized="1"
     inkscape:current-layer="layer1" />
  <defs
     id="defs2" />
  <g
     inkscape:label="Calque 1"
     inkscape:groupmode="layer"
     id="layer1">
    <path
       style="fill:#56b8a1;stroke-width:0.103353;fill-opacity:1"
       d="m 16.888194,52.828787 c -1.124836,-0.04548 -2.5201,-0.137084 -3.100586,-0.203571 C 6.4621708,51.786183 1.7526098,47.44974 0.5389668,40.426208 c -0.319655,-1.849887 -0.381318,-3.51933 -0.435669,-11.795091 -0.08591,-13.081281 0.0918,-15.87623 1.21158,-19.0557398 0.688121,-1.9538452 1.66089,-3.5104886 3.124774,-5.0003211 2.328908,-2.3701913 5.16193,-3.70024657 8.9502262,-4.20197892 2.106482,-0.27898819 7.007903,-0.38398309 15.258641,-0.32686021 9.811129,0.06792603 11.380025,0.17648658 14.004314,0.96903563 2.340116,0.7067277 4.041563,1.7018718 5.747459,3.3615814 2.472665,2.4057203 3.778296,5.2574365 4.296525,9.384335 0.105615,0.841067 0.136046,3.700968 0.13526,12.712402 -9.3e-4,10.462616 -0.01898,11.757883 -0.180373,12.931966 -0.556074,4.045169 -1.881799,6.874709 -4.331137,9.244096 -2.53471,2.451972 -5.611687,3.693906 -10.111908,4.081385 -1.587289,0.136669 -18.446123,0.213978 -21.320465,0.09777 z m 19.092089,-4.756923 c 2.675804,-0.115443 4.044767,-0.290463 5.32408,-0.680678 1.67617,-0.511264 2.876255,-1.252078 4.041785,-2.494999 1.635438,-1.744034 2.380389,-3.687891 2.683447,-7.002124 0.169991,-1.859011 0.251342,-16.339724 0.112642,-20.050456 C 48.013146,14.389984 47.850548,13.044515 47.386886,11.593233 46.847569,9.9051503 46.192957,8.8323147 45.012865,7.7024836 43.18042,5.9480813 41.025666,5.2028719 37.151273,4.9835972 31.862595,4.6842796 16.764675,4.7787619 14.113446,5.1277671 9.0920288,5.7887818 6.1913778,8.4258487 5.2964428,13.143563 c -0.339484,1.789612 -0.411113,4.108782 -0.411707,13.330008 -7.13e-4,11.084003 0.09127,12.733612 0.838499,15.037843 0.530879,1.637065 1.164632,2.630466 2.460993,3.857579 0.724864,0.686145 1.103265,0.950883 1.9509022,1.364895 1.762883,0.861047 3.462458,1.201627 6.663452,1.335295 2.78535,0.116312 16.503456,0.118229 19.181701,0.0027 z M 25.392904,39.991083 c -2.400123,-0.162318 -4.934923,-1.117236 -7.011299,-2.641316 -0.752691,-0.552483 -2.143552,-1.948294 -2.748277,-2.758059 -0.654103,-0.875883 -1.281115,-2.006634 -1.716409,-3.095364 -0.68333,-1.7091 -0.938789,-3.094117 -0.93546,-5.071771 0.0063,-3.758312 1.416911,-7.066295 4.135207,-9.697536 2.030972,-1.965929 4.414259,-3.172233 7.208316,-3.648497 1.469632,-0.250508 4.057633,-0.156797 5.408742,0.195849 2.721384,0.710295 4.746701,1.897959 6.65349,3.901668 2.428194,2.551616 3.680966,5.715913 3.680966,9.297514 0,3.810178 -1.393307,7.102059 -4.125275,9.746534 -1.544916,1.495439 -3.116447,2.456304 -5.106252,3.122065 -1.773616,0.593427 -3.399099,0.787189 -5.443749,0.648913 z m 2.931038,-4.88783 c 1.68476,-0.347997 3.130575,-1.132989 4.361376,-2.367969 1.780717,-1.786763 2.623499,-3.784653 2.627667,-6.229117 0.0031,-1.838496 -0.465331,-3.396081 -1.480126,-4.921223 -1.651299,-2.481749 -4.322116,-3.89971 -7.335669,-3.894572 -2.347183,0.004 -4.334742,0.808896 -6.092835,2.467391 -2.654103,2.503746 -3.435935,6.648106 -1.886719,10.001181 1.144834,2.477843 3.485864,4.369079 6.100121,4.928073 0.952032,0.203569 2.760887,0.211493 3.706185,0.01624 z M 39.603923,15.342236 c -0.773304,-0.262976 -1.708771,-1.234367 -1.956854,-2.032003 -0.619227,-1.99093 0.717278,-3.9381955 2.796178,-4.0739888 1.063505,-0.069468 1.68708,0.1618256 2.424559,0.8993058 0.73748,0.73748 0.968773,1.361055 0.899306,2.424559 -0.07797,1.193663 -0.670708,2.105719 -1.69379,2.606266 -0.727611,0.355987 -1.729837,0.427361 -2.469399,0.175861 z"
       id="path1664" />
  </g>
</svg>
