<?xml version="1.0" encoding="UTF-8" standalone="no"?>
<!-- Created with Inkscape (http://www.inkscape.org/) -->

<svg
   width="200"
   height="200"
   viewBox="0 0 52.916664 52.916668"
   version="1.1"
   id="svg5"
   inkscape:version="1.1 (c68e22c387, 2021-05-23)"
   sodipodi:docname="map-hover.svg"
   xmlns:inkscape="http://www.inkscape.org/namespaces/inkscape"
   xmlns:sodipodi="http://sodipodi.sourceforge.net/DTD/sodipodi-0.dtd"
   xmlns="http://www.w3.org/2000/svg"
   xmlns:svg="http://www.w3.org/2000/svg">
  <sodipodi:namedview
     id="namedview7"
     pagecolor="#505050"
     bordercolor="#eeeeee"
     borderopacity="1"
     inkscape:pageshadow="0"
     inkscape:pageopacity="0"
     inkscape:pagecheckerboard="0"
     inkscape:document-units="mm"
     showgrid="false"
     units="px"
     inkscape:zoom="3.865"
     inkscape:cx="100"
     inkscape:cy="100"
     inkscape:window-width="1920"
     inkscape:window-height="1009"
     inkscape:window-x="1912"
     inkscape:window-y="-8"
     inkscape:window-maximized="1"
     inkscape:current-layer="layer1" />
  <defs
     id="defs2" />
  <g
     inkscape:label="Calque 1"
     inkscape:groupmode="layer"
     id="layer1">
    <path
       style="fill:#00916e;stroke-width:0.103353;fill-opacity:1"
       d="M 26.088562,52.761719 C 25.911159,52.681411 25.649134,52.459781 25.506283,52.269208 24.74798,51.257566 10.508169,28.154139 9.8769326,26.911316 7.5358876,22.302098 7.2410586,17.115944 9.0378856,12.152132 10.834401,7.1891786 15.061993,2.9625017 20.02724,1.1651561 c 2.190786,-0.79303248 4.058206,-1.11721848 6.43555,-1.11721848 2.377345,0 4.244765,0.324186 6.435551,1.11721848 4.965246,1.7973456 9.192838,6.0240225 10.989354,10.9869759 1.802626,4.979835 1.481422,10.300374 -0.900382,14.914214 -1.019508,1.974909 -15.100377,25.344106 -15.401672,25.561258 -0.354186,0.25527 -1.084849,0.320726 -1.497079,0.134115 z m 2.836752,-25.173095 c 2.826636,-0.811252 5.043617,-2.791067 6.147333,-5.489709 0.553504,-1.353346 0.640528,-1.839227 0.637462,-3.559181 -0.0023,-1.270188 -0.04217,-1.683314 -0.220879,-2.286523 -0.992876,-3.351353 -3.259167,-5.633864 -6.632695,-6.6801674 -1.00451,-0.311549 -3.78298,-0.311549 -4.787489,0 -3.351971,1.0396174 -5.643836,3.3351004 -6.614177,6.6246224 -0.300002,1.017023 -0.366418,2.917369 -0.143247,4.098625 0.612348,3.241186 2.976505,6.001622 6.061487,7.077511 1.252864,0.436936 1.810903,0.514164 3.39974,0.470491 1.015972,-0.02793 1.601102,-0.09743 2.152465,-0.255669 z m -3.806111,-2.95728 c -2.746252,-0.591955 -4.853995,-3.214666 -4.853995,-6.039934 0,-3.337918 2.859664,-6.197582 6.197582,-6.197582 2.843669,0 5.461753,2.124399 6.045688,4.905672 0.441696,2.103785 -0.160241,4.106865 -1.695487,5.642111 -1.538953,1.538954 -3.581346,2.14507 -5.693788,1.689733 z"
       id="path1861" />
  </g>
</svg>
