<?xml version="1.0" encoding="UTF-8" standalone="no"?>
<!-- Created with Inkscape (http://www.inkscape.org/) -->

<svg
   width="160"
   height="300"
   viewBox="0 0 42.333331 79.375002"
   version="1.1"
   id="svg5"
   inkscape:version="1.1 (c68e22c387, 2021-05-23)"
   sodipodi:docname="next.svg"
   xmlns:inkscape="http://www.inkscape.org/namespaces/inkscape"
   xmlns:sodipodi="http://sodipodi.sourceforge.net/DTD/sodipodi-0.dtd"
   xmlns="http://www.w3.org/2000/svg"
   xmlns:svg="http://www.w3.org/2000/svg">
  <sodipodi:namedview
     id="namedview7"
     pagecolor="#505050"
     bordercolor="#eeeeee"
     borderopacity="1"
     inkscape:pageshadow="0"
     inkscape:pageopacity="0"
     inkscape:pagecheckerboard="0"
     inkscape:document-units="mm"
     showgrid="false"
     units="px"
     inkscape:zoom="3.865"
     inkscape:cx="102.58732"
     inkscape:cy="224.19146"
     inkscape:window-width="1920"
     inkscape:window-height="1009"
     inkscape:window-x="1912"
     inkscape:window-y="-8"
     inkscape:window-maximized="1"
     inkscape:current-layer="layer2" />
  <defs
     id="defs2">
    <filter
       inkscape:collect="always"
       style="color-interpolation-filters:sRGB"
       id="filter1537"
       x="-0.016909201"
       y="-0.0092999672"
       width="1.0338184"
       height="1.0185999">
      <feGaussianBlur
         inkscape:collect="always"
         stdDeviation="0.28998747"
         id="feGaussianBlur1539" />
    </filter>
  </defs>
  <g
     inkscape:label="rounded"
     inkscape:groupmode="layer"
     id="layer1"
     style="display:none">
    <path
       style="fill:#ffffff;fill-opacity:1;stroke-width:0.103431"
       d="M 4.5301823,31.523028 C 2.2298883,31.221681 0.45524635,29.503943 0.06497435,27.200996 -0.34919465,24.75704 1.2561193,22.286273 3.7552323,21.521258 c 0.593925,-0.181808 1.5693,-0.18997 22.7030997,-0.18997 21.133802,0 22.109177,0.0082 22.703101,0.18997 2.499113,0.765015 4.104428,3.235782 3.690259,5.679738 -0.333799,1.969704 -1.688884,3.526126 -3.638543,4.179159 -0.544926,0.18252 -1.48531,0.191108 -22.341092,0.20402 -11.974722,0.0074 -22.0285657,-0.0201 -22.3418747,-0.06115 z"
       id="path1059" />
  </g>
  <g
     inkscape:groupmode="layer"
     id="layer2"
     inkscape:label="square">
    <path
       id="rect826"
       style="fill:#000000;fill-opacity:0.31999999;stroke-width:1.05833;stroke-linecap:round;stroke-linejoin:round;filter:url(#filter1537)"
       d="M 4.3289346,3.8571287 0.58704426,7.5990191 34.262507,41.274998 0.58704426,74.950979 4.3289346,78.69287 38.004398,45.016889 41.746289,41.274998 38.004398,37.533107 Z" />
    <g
       id="g835"
       transform="translate(-5.2916678,16.722687)"
       style="fill:#ffffff;fill-opacity:1">
      <rect
         style="fill:#ffffff;fill-opacity:1;stroke-width:1.05833;stroke-linecap:round;stroke-linejoin:round"
         id="rect1133"
         width="52.916668"
         height="5.2916665"
         x="-3.4171417"
         y="-17.022375"
         transform="rotate(45)" />
      <rect
         style="fill:#ffffff;fill-opacity:1;stroke-width:1.05833;stroke-linecap:round;stroke-linejoin:round"
         id="rect831"
         width="52.916668"
         height="5.2916665"
         x="-35.894291"
         y="-49.499527"
         transform="matrix(0.70710678,-0.70710678,-0.70710678,-0.70710678,0,0)" />
    </g>
  </g>
</svg>
