<?xml version="1.0" encoding="UTF-8" standalone="no"?>
<!-- Created with Inkscape (http://www.inkscape.org/) -->

<svg
   width="200"
   height="200"
   viewBox="0 0 52.916664 52.916668"
   version="1.1"
   id="svg5"
   inkscape:version="1.1 (c68e22c387, 2021-05-23)"
   sodipodi:docname="tel.svg"
   xmlns:inkscape="http://www.inkscape.org/namespaces/inkscape"
   xmlns:sodipodi="http://sodipodi.sourceforge.net/DTD/sodipodi-0.dtd"
   xmlns="http://www.w3.org/2000/svg"
   xmlns:svg="http://www.w3.org/2000/svg">
  <sodipodi:namedview
     id="namedview7"
     pagecolor="#505050"
     bordercolor="#eeeeee"
     borderopacity="1"
     inkscape:pageshadow="0"
     inkscape:pageopacity="0"
     inkscape:pagecheckerboard="0"
     inkscape:document-units="mm"
     showgrid="false"
     units="px"
     inkscape:zoom="3.865"
     inkscape:cx="99.870634"
     inkscape:cy="79.301423"
     inkscape:window-width="1920"
     inkscape:window-height="991"
     inkscape:window-x="-9"
     inkscape:window-y="-9"
     inkscape:window-maximized="1"
     inkscape:current-layer="layer1" />
  <defs
     id="defs2" />
  <g
     inkscape:label="Calque 1"
     inkscape:groupmode="layer"
     id="layer1">
    <path
       style="fill:#56b8a1;stroke-width:0.103353;fill-opacity:1"
       d="M 35.508715,52.823076 C 33.470099,52.585302 31.728432,52.060749 29.824308,51.111053 27.266151,49.835154 27.618065,50.156607 15.292068,37.836645 8.0989739,30.647073 3.8460759,26.320209 3.4517189,25.79037 2.3103429,24.256872 1.4670569,22.664282 0.90276687,20.976546 c -1.174774,-3.51364 -1.164188,-7.15103 0.031311,-10.758439 C 1.4701229,8.6005932 2.7992429,6.1953637 3.7396469,5.1410347 l 0.349797,-0.3921732 6.5517991,6.5567035 6.551799,6.556703 -0.203391,0.295024 c -0.380403,0.551783 -0.497863,0.999341 -0.497863,1.896994 0,0.712682 0.04656,0.976038 0.246663,1.395263 0.195702,0.410002 1.678365,1.951599 7.176572,7.461831 7.820196,7.8373 7.432482,7.512078 8.963129,7.518395 0.680172,0.0028 0.870455,-0.04127 1.485685,-0.344147 l 0.705604,-0.347367 6.550546,6.550546 6.550546,6.550546 -0.698178,0.52975 c -2.304558,1.748607 -4.402969,2.69429 -7.209408,3.249038 -1.16747,0.230772 -3.624597,0.336689 -4.754232,0.204935 z m 8.389495,-12.69433 -6.596671,-6.603365 0.802393,-0.749347 c 1.234053,-1.152471 2.212004,-1.574197 3.640481,-1.569904 0.877167,0.0026 1.648153,0.214172 2.455921,0.673832 0.622191,0.354057 7.429861,7.192698 7.961234,7.997454 0.660295,1.000004 0.877335,2.191694 0.620707,3.408078 -0.212092,1.005289 -0.572157,1.631525 -1.506663,2.620434 l -0.780731,0.826181 z M 12.743795,8.9682422 6.2058859,2.4297248 6.9563399,1.6931958 c 0.848347,-0.83260462 1.43293,-1.22681682 2.130921,-1.43697892 1.2270831,-0.3694702 2.4653371,-0.2728912 3.6321471,0.2832937 0.596744,0.2844505 1.083118,0.73137532 4.353673,4.00054832 3.679159,3.6776035 4.023121,4.0796221 4.448653,5.1995316 0.419966,1.1052615 0.223764,2.8064445 -0.445364,3.8615485 -0.301611,0.475592 -1.602702,1.90562 -1.733801,1.90562 -0.03347,0 -3.002924,-2.942333 -6.598774,-6.5385168 z"
       id="path2260" />
  </g>
</svg>
