<?xml version="1.0" encoding="UTF-8" standalone="no"?>
<!-- Created with Inkscape (http://www.inkscape.org/) -->

<svg
   width="200"
   height="200"
   viewBox="0 0 52.916664 52.916668"
   version="1.1"
   id="svg5"
   inkscape:version="1.1 (c68e22c387, 2021-05-23)"
   sodipodi:docname="twitter.svg"
   xmlns:inkscape="http://www.inkscape.org/namespaces/inkscape"
   xmlns:sodipodi="http://sodipodi.sourceforge.net/DTD/sodipodi-0.dtd"
   xmlns="http://www.w3.org/2000/svg"
   xmlns:svg="http://www.w3.org/2000/svg">
  <sodipodi:namedview
     id="namedview7"
     pagecolor="#505050"
     bordercolor="#eeeeee"
     borderopacity="1"
     inkscape:pageshadow="0"
     inkscape:pageopacity="0"
     inkscape:pagecheckerboard="0"
     inkscape:document-units="mm"
     showgrid="false"
     units="px"
     inkscape:zoom="3.865"
     inkscape:cx="99.870634"
     inkscape:cy="100"
     inkscape:window-width="1920"
     inkscape:window-height="991"
     inkscape:window-x="-9"
     inkscape:window-y="-9"
     inkscape:window-maximized="1"
     inkscape:current-layer="layer1" />
  <defs
     id="defs2" />
  <g
     inkscape:label="Calque 1"
     inkscape:groupmode="layer"
     id="layer1">
    <path
       style="fill:#56b8a1;stroke-width:0.103353;fill-opacity:1"
       d="M 19.379922,49.368331 C 13.590569,49.037829 6.987405,47.360315 3.473973,45.327472 2.4663,44.744441 1.490581,43.940713 1.298142,43.535177 c -0.34764704,-0.732611 -0.106232,-1.628923 0.548382,-2.036 0.358073,-0.222671 0.488253,-0.235301 2.650333,-0.257139 4.213566,-0.04256 6.413478,-0.446211 8.681641,-1.592954 1.000897,-0.506037 2.254922,-1.343448 2.146014,-1.433065 -0.04343,-0.03573 -0.544045,-0.194896 -1.112485,-0.353692 C 11.482024,37.099688 8.663733,35.712943 6.77062,34.200767 5.192949,32.94056 4.651886,32.28617 4.651886,31.638259 c 0,-0.38704 0.37241,-1.122991 0.665409,-1.314971 C 5.45031,30.236138 5.947217,30.065739 6.421532,29.944636 6.895847,29.823532 7.34283,29.691482 7.414827,29.65119 7.497847,29.60473 7.279911,29.434357 6.819087,29.185456 5.208411,28.315492 3.393126,26.718514 2.373608,25.27459 1.378931,23.865847 0.57022996,22.011828 0.16032696,20.200444 c -0.210093,-0.928414 -0.20234,-1.09412 0.0758,-1.62009 0.26074,-0.493066 0.77126504,-0.828114 1.26188404,-0.828151 0.171419,-1.3e-5 0.721952,0.120682 1.223406,0.26821 C 3.222872,18.167942 3.65368,18.268119 3.67877,18.24303 3.70386,18.21794 3.60212,17.922837 3.452675,17.587246 1.986157,14.293991 2.250387,10.365804 4.132345,7.4829356 4.667627,6.6629652 5.07434,6.3834118 5.732005,6.3834118 c 0.761502,0 1.088554,0.2992449 1.976744,1.8086752 3.657022,6.214908 9.903492,10.365953 16.951375,11.26491 l 0.526223,0.06712 0.06635,-1.383382 c 0.110139,-2.296507 0.554603,-4.027712 1.526122,-5.944288 1.889095,-3.7267357 5.153183,-6.060738 9.142091,-6.5370985 1.986998,-0.23729 3.740073,0.061247 6.10768,1.0400976 0.315116,0.1302798 0.425944,0.084522 3.756023,-1.5507536 3.722274,-1.8278684 3.95379,-1.9009232 4.688617,-1.4794958 0.455817,0.2614141 0.819771,0.9984236 0.742997,1.5045763 -0.03273,0.2157814 -0.639978,1.5525513 -1.34944,2.9706001 -0.70946,1.4180487 -1.289928,2.5912659 -1.289928,2.6071499 0,0.01588 0.616241,-0.02639 1.369425,-0.09395 1.601052,-0.143612 2.02566,-0.07292 2.517752,0.419172 0.381268,0.381269 0.531948,0.952297 0.381036,1.444011 -0.05502,0.179282 -0.669643,1.242602 -1.36582,2.362931 l -1.265778,2.036964 0.184782,1.371804 c 0.25821,1.916939 0.264328,6.077233 0.01129,7.676329 -0.990136,6.25719 -3.568936,11.351269 -8.074873,15.95085 -1.913194,1.952956 -3.587894,3.200557 -5.830876,4.343826 -3.765585,1.919354 -7.608701,2.851804 -12.834976,3.114132 -2.200849,0.11047 -2.191314,0.11049 -4.288892,-0.0093 z"
       id="path2475" />
  </g>
</svg>
